<?xml version="1.0" standalone="no"?>
<!DOCTYPE svg PUBLIC "-//W3C//DTD SVG 20010904//EN"
 "http://www.w3.org/TR/2001/REC-SVG-20010904/DTD/svg10.dtd">
<svg version="1.0" xmlns="http://www.w3.org/2000/svg"
 width="200.000000pt" height="200.000000pt" viewBox="0 0 200.000000 200.000000"
 preserveAspectRatio="xMidYMid meet">
<metadata>
Created by potrace 1.11, written by Peter Selinger 2001-2013
</metadata>
<g transform="translate(0.000000,200.000000) scale(0.100000,-0.100000)"
fill="#000000" stroke="none">
<path d="M10 1939 c0 -33 5 -69 10 -80 9 -15 7 -21 -5 -25 -8 -4 -15 -18 -15
-34 0 -25 4 -28 43 -32 30 -3 50 0 69 14 15 10 52 30 82 44 55 25 56 26 56 68
0 24 -3 58 -6 75 l-6 31 -114 0 -114 0 0 -61z"/>
<path d="M313 1981 c-23 -11 -44 -17 -47 -13 -3 3 -6 -21 -6 -54 l0 -59 68 -1
68 -1 2 56 c1 30 5 63 8 73 7 25 -37 24 -93 -1z m44 -98 c-3 -10 -5 -2 -5 17
0 19 2 27 5 18 2 -10 2 -26 0 -35z m-70 5 c-3 -8 -6 -5 -6 6 -1 11 2 17 5 13
3 -3 4 -12 1 -19z"/>
<path d="M434 1963 c3 -21 6 -57 6 -81 0 -41 1 -43 48 -63 26 -11 73 -43 104
-70 36 -31 63 -47 70 -43 7 4 5 -2 -4 -13 -10 -11 -18 -23 -18 -27 0 -4 -11
-22 -24 -39 -13 -18 -27 -45 -31 -62 -4 -16 -10 -24 -12 -17 -3 6 -19 12 -36
12 -18 0 -27 -4 -20 -8 13 -8 48 -90 41 -97 -2 -2 -17 20 -33 49 -28 52 -31
54 -79 60 -27 3 -52 4 -54 2 -8 -9 105 -213 140 -253 11 -11 18 -29 16 -40 -3
-13 -14 -2 -42 41 -50 78 -136 233 -136 246 0 6 -11 10 -25 10 -14 0 -25 -3
-25 -6 0 -11 80 -155 127 -227 42 -66 53 -97 34 -97 -5 0 -13 9 -16 20 -4 11
-21 43 -39 70 -18 27 -55 92 -82 144 -36 70 -55 96 -71 99 -13 2 -23 2 -23 -1
0 -9 102 -194 137 -249 33 -52 42 -83 23 -83 -6 0 -14 10 -19 23 -5 12 -31 58
-58 103 -27 44 -65 111 -84 147 -27 53 -39 67 -57 67 -22 0 -22 0 9 -62 18
-35 58 -107 90 -160 62 -103 68 -118 44 -118 -8 0 -15 8 -15 18 0 9 -19 44
-41 77 -22 33 -61 101 -87 152 -35 68 -52 93 -69 96 -13 2 -23 0 -23 -6 0 -13
93 -187 136 -255 32 -50 43 -82 27 -82 -8 0 -159 261 -180 311 -6 15 -9 30 -6
33 4 3 -8 6 -25 6 -18 0 -32 -3 -32 -7 0 -3 38 -75 85 -159 86 -154 97 -184
70 -184 -8 0 -15 8 -15 18 0 10 -4 22 -9 28 -5 5 -41 67 -80 139 l-71 130 0
-48 c0 -50 17 -92 76 -185 37 -57 43 -82 19 -82 -8 0 -15 7 -15 15 0 8 -18 43
-40 77 l-40 63 0 -45 c0 -26 4 -50 9 -55 5 -6 12 -20 16 -32 5 -17 2 -23 -9
-23 -14 0 -16 -47 -16 -442 0 -320 3 -439 11 -428 9 12 9 11 3 -5 -10 -26 -17
-103 -12 -141 3 -29 3 -29 45 27 23 31 49 63 58 72 21 21 45 22 45 2 0 -8 5
-15 11 -15 5 0 7 -5 3 -12 -5 -7 -2 -9 7 -4 8 4 3 -2 -11 -14 -56 -48 -76 -68
-100 -99 -14 -18 -33 -41 -42 -52 -13 -13 -18 -36 -18 -74 l0 -55 45 0 c42 0
51 5 96 51 41 40 51 57 51 83 0 40 32 68 98 86 32 9 40 14 29 21 -32 20 -96 6
-145 -33 -38 -30 -84 -80 -79 -87 4 -8 -53 -68 -58 -60 -1 2 -9 12 -16 21 -11
15 -8 23 20 58 50 62 245 163 273 141 13 -11 93 -7 104 4 4 5 -1 5 -11 2 -10
-4 -27 -1 -37 6 -18 12 -16 14 18 26 20 7 53 23 72 35 19 12 50 29 68 37 17 7
32 17 32 21 0 5 17 8 39 8 32 0 40 4 45 23 9 33 9 33 -31 29 -46 -5 -34 15 11
21 17 2 31 8 33 14 3 8 -8 8 -34 2 -21 -5 -45 -9 -53 -9 -13 0 -13 1 0 10 12
8 12 10 -3 16 -23 9 -167 -4 -237 -21 -109 -27 -120 -28 -114 -12 8 21 24 24
234 48 102 11 187 22 188 24 2 2 -4 17 -14 34 -13 22 -26 31 -44 31 -39 0 -57
15 -41 34 7 8 19 12 28 9 11 -5 14 -1 10 13 -27 86 -28 176 -8 544 13 232 13
234 83 303 61 60 91 77 143 83 17 2 49 9 72 15 31 8 59 9 105 1 35 -6 86 -14
113 -17 79 -10 95 -16 95 -35 0 -10 -7 -20 -14 -23 -18 -7 -31 -67 -22 -101 3
-14 16 -26 31 -30 21 -5 25 -12 25 -41 0 -24 -5 -35 -15 -35 -7 0 -18 -6 -22
-13 -4 -7 -34 -19 -65 -26 -32 -7 -58 -17 -58 -22 0 -5 -7 -9 -15 -9 -8 0 -22
-16 -31 -35 -9 -19 -21 -35 -28 -36 -6 -1 -27 -2 -46 -4 -19 -1 -40 -4 -45 -6
-6 -2 -20 6 -33 19 -22 22 -53 28 -120 23 -45 -3 -116 -42 -120 -66 -4 -20 -4
-20 11 0 14 19 21 20 102 16 30 -1 37 -41 8 -42 -15 0 -15 -2 2 -9 18 -7 17
-8 -10 -15 -16 -4 -35 -11 -40 -14 -6 -3 -2 2 8 12 16 14 17 17 3 17 -20 0
-56 -35 -56 -54 0 -10 10 -14 34 -13 23 1 32 6 28 15 -4 12 -1 12 16 1 26 -16
24 -46 -3 -54 -19 -5 -19 -6 -1 -16 10 -6 34 -9 54 -6 35 6 85 43 77 58 -3 4
6 16 19 26 13 11 25 28 27 39 5 23 51 31 66 12 6 -7 13 -56 16 -108 l6 -95
-32 -37 c-25 -29 -40 -37 -72 -39 l-40 -4 1 43 1 42 -26 -17 c-79 -52 -141
-138 -141 -197 0 -24 23 -56 41 -56 5 0 9 -5 9 -11 0 -6 7 -26 16 -45 18 -38
44 -46 44 -13 0 11 7 33 16 47 15 27 17 27 133 29 106 1 117 0 118 -17 1 -14
-8 -19 -43 -25 -43 -6 -61 -24 -26 -26 9 -1 24 -3 32 -3 19 -2 89 -46 73 -46
-7 0 -10 -6 -7 -14 3 -7 -5 -32 -16 -55 -18 -33 -27 -41 -50 -41 -15 0 -39 -9
-53 -20 -14 -11 -35 -20 -46 -20 -34 0 -24 -15 28 -44 38 -20 51 -34 56 -57
11 -49 -22 -60 -114 -38 -24 5 -45 8 -47 6 -7 -7 110 -117 123 -117 7 0 13 -4
13 -10 0 -17 -59 -11 -110 11 -56 24 -73 53 -94 152 -13 59 -73 184 -83 173
-8 -8 -13 -237 -6 -276 5 -29 7 -32 14 -15 7 17 8 16 8 -7 1 -19 -4 -28 -14
-28 -26 0 -66 -46 -58 -67 8 -23 49 -64 57 -56 3 4 6 1 6 -6 0 -8 7 -11 15 -7
8 3 15 0 15 -6 0 -6 3 -9 6 -5 3 3 -2 21 -11 39 -18 35 -31 114 -14 88 5 -8 9
-27 9 -41 0 -14 9 -35 21 -47 14 -15 18 -30 14 -45 -5 -17 -4 -19 4 -7 8 11
11 12 11 2 0 -9 10 -12 28 -10 15 2 26 8 24 16 -1 6 3 12 9 12 8 0 8 4 2 13
-6 6 -13 20 -17 31 -5 14 -2 17 9 12 8 -3 15 -1 15 3 0 5 -5 11 -11 13 -7 2
-10 10 -7 18 2 8 15 -5 31 -33 49 -84 56 -87 176 -87 l106 1 43 49 43 50 -11
56 c-7 31 -8 59 -3 63 4 3 8 5 7 4 -1 -2 5 -35 11 -75 l12 -71 -34 -38 -35
-39 100 0 c63 0 103 4 108 11 4 8 9 7 15 -2 7 -11 9 -9 10 6 l0 20 9 -20 c6
-16 9 -12 16 25 4 25 9 39 12 32 3 -10 7 -10 18 -1 12 9 14 5 15 -27 1 -22 3
-30 5 -19 3 11 10 47 16 80 10 50 13 56 19 35 6 -23 7 -23 8 8 1 36 20 45 22
10 1 -20 7 0 24 87 17 83 26 119 31 124 3 3 3 -12 -1 -34 -4 -22 -5 -37 -1
-34 11 10 33 109 25 109 -5 0 -9 4 -9 10 0 5 7 7 15 4 9 -4 13 -14 11 -23 -3
-9 -7 -34 -10 -56 -5 -34 -3 -32 8 11 7 28 16 56 20 62 8 13 -14 63 -24 57 -5
-3 -11 2 -14 11 -6 15 0 16 40 10 25 -3 50 -9 56 -12 5 -4 29 -8 52 -10 22 -2
82 -15 131 -30 50 -14 98 -29 108 -31 16 -5 17 13 17 271 0 269 0 276 -20 276
-20 0 -20 7 -20 330 0 287 -2 330 -15 330 -13 0 -15 -38 -15 -285 0 -172 -4
-292 -10 -303 -5 -9 -14 -29 -20 -44 -8 -24 -15 -28 -50 -28 l-40 0 -1 278 c0
298 -4 353 -21 363 -9 6 -8 12 3 25 11 13 11 18 2 21 -16 6 -18 123 -3 123 6
0 10 25 10 56 l0 56 -35 -6 c-21 -4 -35 -3 -35 3 0 5 15 11 33 13 31 3 32 4
35 56 l3 52 -235 0 c-129 0 -236 -4 -238 -8 -3 -8 -270 -76 -349 -88 l-36 -6
-7 51 -7 51 -72 0 -72 0 4 -90 c3 -100 8 -92 -80 -159 -30 -23 -31 -23 -20 -4
17 33 14 36 -29 29 -52 -8 -83 11 -104 65 -15 38 -15 43 4 86 11 25 28 52 38
59 14 11 3 13 -77 14 l-94 0 7 -37z m1285 -170 c17 -15 31 -37 31 -49 0 -20
-33 -69 -66 -99 -6 -5 -28 -62 -49 -125 -20 -63 -46 -131 -56 -150 -34 -64
-22 4 23 136 23 68 40 126 37 128 -3 3 -14 3 -25 0 -14 -4 -26 -21 -37 -52
l-15 -47 -1 63 c-1 34 2 62 7 62 4 0 7 22 7 50 0 27 -4 50 -8 50 -5 0 -7 8 -5
17 2 11 20 21 53 29 71 17 70 17 104 -13z m11 -200 c-10 -32 -35 -100 -54
-152 -20 -51 -36 -102 -36 -112 0 -11 -5 -19 -11 -19 -17 0 -7 39 45 185 26
72 49 136 51 143 2 6 9 12 14 12 5 0 1 -26 -9 -57z m-1223 -125 c25 -42 43
-84 41 -94 -2 -10 -20 12 -48 61 -54 94 -64 118 -48 113 6 -2 31 -38 55 -80z
m1229 -385 c-3 -93 -7 -189 -8 -215 l-3 -48 -66 0 -66 0 -2 64 c-2 72 2 76 87
76 l42 0 0 145 c0 100 3 145 11 145 8 0 10 -47 5 -167z m-1554 -3 c3 -71 2
-75 -19 -78 -19 -3 -22 3 -28 45 -4 26 -10 62 -15 80 -7 29 -6 32 18 35 15 2
30 1 34 -2 3 -3 8 -39 10 -80z m225 41 c-1 -11 -11 -24 -23 -30 -21 -9 -23 -7
-22 20 1 23 5 29 24 29 16 0 22 -5 21 -19z m702 -19 c-17 -7 -36 -11 -43 -8
-6 2 4 9 22 16 17 7 32 17 32 23 0 7 5 5 10 -3 7 -12 3 -18 -21 -28z m-1002
-67 c5 -27 7 -60 5 -72 -4 -26 -27 -31 -36 -7 -11 27 -7 114 5 114 6 0 8 7 4
18 -4 11 -3 14 4 7 5 -5 13 -32 18 -60z m1005 29 c32 -16 73 -16 206 2 45 6
57 -7 23 -26 -11 -5 -22 -23 -26 -39 -3 -17 -16 -42 -27 -56 -11 -14 -18 -28
-15 -31 3 -3 -6 -17 -19 -31 -13 -14 -24 -33 -24 -41 0 -8 -26 12 -57 45 -32
33 -77 73 -99 89 -34 24 -40 34 -32 47 5 10 6 26 3 37 -8 25 22 27 67 4z
m-615 -18 c-3 -8 -1 -17 6 -20 7 -2 4 -5 -5 -5 -12 -1 -18 6 -18 19 0 11 5 20
11 20 6 0 9 -6 6 -14z m-179 -64 c-2 -20 -7 -37 -13 -37 -12 0 -19 70 -10 94
11 27 27 -13 23 -57z m194 -34 c-7 -7 -12 -8 -12 -2 0 14 12 26 19 19 2 -3 -1
-11 -7 -17z m1258 -8 c0 -5 -2 -10 -4 -10 -3 0 -8 5 -11 10 -3 6 -1 10 4 10 6
0 11 -4 11 -10z m-906 -109 c11 -17 86 -51 113 -51 48 0 17 -11 -72 -25 -89
-15 -113 -13 -97 8 5 7 13 27 17 45 6 30 27 43 39 23z m420 -115 c-3 -17 -10
-35 -15 -40 -5 -6 -9 -20 -9 -32 0 -29 -14 -38 -30 -19 -18 22 -15 82 5 130
l17 40 20 -24 c14 -18 17 -32 12 -55z m-271 5 c4 -1 7 -5 7 -11 0 -6 -32 -10
-75 -10 -58 0 -75 3 -75 14 0 11 14 14 68 11 37 -1 70 -3 75 -4z m546 -107
c24 -40 23 -59 -1 -22 -16 25 -29 58 -24 58 2 0 14 -16 25 -36z m-1012 -110
c-3 -3 -12 -4 -19 -1 -8 3 -5 6 6 6 11 1 17 -2 13 -5z m-487 -28 c0 -10 -32
-36 -43 -36 -7 0 -1 9 13 20 26 21 30 23 30 16z m1350 -98 c0 -5 -4 -7 -9 -5
-4 1 -18 -9 -31 -23 -16 -18 -20 -20 -16 -7 4 11 2 16 -5 12 -6 -4 -8 -14 -5
-22 3 -8 -3 -27 -14 -43 -11 -15 -24 -38 -29 -51 -7 -17 -10 -19 -10 -7 -1 10
-12 25 -26 34 l-24 16 47 38 c26 21 60 50 77 63 28 23 44 21 45 -5z m-1202
-57 c11 -7 11 -9 -1 -14 -8 -3 -23 1 -34 8 -17 14 -17 14 2 15 11 0 26 -4 33
-9z m510 -37 c-3 -27 -4 -26 -9 8 -3 22 -1 34 4 29 5 -5 7 -21 5 -37z m26 -39
c4 -32 4 -45 -3 -36 -8 12 -10 12 -14 0 -2 -8 -3 -5 -1 6 2 11 4 35 4 54 0 47
6 36 14 -24z m790 21 c-3 -15 -8 -25 -11 -23 -2 3 -1 17 3 31 3 15 8 25 11 23
2 -3 1 -17 -3 -31z m-10 -61 c-4 -8 -8 -15 -10 -15 -2 0 -4 7 -4 15 0 8 4 15
10 15 5 0 7 -7 4 -15z m-217 -32 c-3 -10 -5 -4 -5 12 0 17 2 24 5 18 2 -7 2
-21 0 -30z m-1193 -85 c-22 -43 -25 -46 -21 -21 3 19 24 53 33 53 3 0 -3 -15
-12 -32z"/>
<path d="M1600 1745 c7 -8 10 -28 8 -45 -4 -24 -2 -27 9 -19 23 20 13 79 -14
79 -13 0 -13 -3 -3 -15z"/>
<path d="M1640 1745 c0 -9 9 -19 21 -22 14 -4 19 -12 16 -24 -3 -11 -1 -17 4
-13 12 7 12 44 0 44 -5 0 -17 7 -25 16 -15 14 -16 14 -16 -1z"/>
<path d="M1311 297 c-13 -21 -12 -21 5 -5 10 10 16 20 13 22 -3 3 -11 -5 -18
-17z"/>
<path d="M1928 1895 c-3 -95 -1 -105 15 -105 15 0 17 12 17 105 0 85 -3 105
-14 105 -12 0 -15 -22 -18 -105z"/>
<path d="M264 1749 c-26 -29 -27 -122 -1 -127 10 -2 24 4 31 13 10 14 24 16
74 12 56 -4 61 -3 65 17 l4 21 8 -22 c6 -20 50 -37 67 -26 11 6 10 45 -2 63
-8 12 -10 12 -16 -4 -4 -10 -10 -13 -13 -8 -3 6 -30 13 -59 16 -43 5 -54 3
-59 -11 -10 -25 -24 22 -17 55 5 26 5 26 -11 7 -9 -11 -18 -31 -22 -45 -12
-55 -53 -93 -53 -50 0 11 6 20 14 20 16 0 41 64 31 80 -9 15 -20 12 -41 -11z"/>
<path d="M1930 1660 c0 -5 7 -10 15 -10 8 0 15 5 15 10 0 6 -7 10 -15 10 -8 0
-15 -4 -15 -10z"/>
<path d="M623 543 c9 -2 14 -9 11 -15 -4 -7 -2 -8 5 -4 15 10 4 26 -17 25 -15
-1 -15 -2 1 -6z"/>
<path d="M1671 415 c0 -16 -4 -41 -6 -55 l-6 -25 11 25 c6 13 9 38 7 55 l-4
30 -2 -30z"/>
<path d="M1691 414 c0 -11 3 -14 6 -6 3 7 2 16 -1 19 -3 4 -6 -2 -5 -13z"/>
<path d="M1711 384 c0 -11 3 -14 6 -6 3 7 2 16 -1 19 -3 4 -6 -2 -5 -13z"/>
<path d="M110 315 c-7 -8 -8 -15 -2 -15 5 0 15 7 22 15 7 8 8 15 2 15 -5 0
-15 -7 -22 -15z"/>
<path d="M130 300 c0 -5 5 -10 10 -10 6 0 10 5 10 10 0 6 -4 10 -10 10 -5 0
-10 -4 -10 -10z"/>
<path d="M430 279 c0 -11 50 -12 67 -1 6 4 -6 8 -28 8 -21 1 -39 -2 -39 -7z"/>
<path d="M1591 274 c0 -11 3 -14 6 -6 3 7 2 16 -1 19 -3 4 -6 -2 -5 -13z"/>
<path d="M1741 274 c0 -11 3 -14 6 -6 3 7 2 16 -1 19 -3 4 -6 -2 -5 -13z"/>
<path d="M1515 119 c-4 -6 -5 -12 -2 -15 2 -3 7 2 10 11 7 17 1 20 -8 4z"/>
</g>
</svg>
